<svg width="41" height="41" viewBox="0 0 41 41" fill="none" xmlns="http://www.w3.org/2000/svg">
<path d="M20.5763 9.92311V5.98145M20.5763 9.92311C22.8845 10.0126 25.0675 10.996 26.664 12.6656C28.2604 14.3351 29.1452 16.5599 29.1313 18.8698V21.8698C29.1313 25.8464 32.243 26.8398 32.243 28.8281C32.243 29.8164 32.243 30.9814 31.3463 30.9814H9.80633C8.90967 30.9814 8.90967 29.8164 8.90967 28.8281C8.90967 26.8398 12.0213 25.8464 12.0213 21.8698V18.8698C12.0075 16.5599 12.8923 14.3351 14.4887 12.6656C16.0851 10.996 18.2681 10.0126 20.5763 9.92311ZM15.1313 30.9814C15.288 32.4014 15.6413 33.5481 16.7047 34.5014C17.7687 35.4553 19.1474 35.9829 20.5763 35.9829C22.0053 35.9829 23.384 35.4553 24.448 34.5014C25.5113 33.5481 26.508 32.4014 26.6647 30.9814H15.1313Z" stroke="#4B4C50" stroke-width="3" stroke-linecap="round" stroke-linejoin="round"/>
</svg>
