<svg width="70" height="70" viewBox="0 0 70 70" fill="none" xmlns="http://www.w3.org/2000/svg">
<path d="M35.0002 8.75C35.0002 8.75 16.9577 24.325 6.87475 32.76C6.55376 33.0394 6.29517 33.3833 6.11578 33.7692C5.93639 34.1551 5.84021 34.5745 5.8335 35C5.8335 35.7735 6.14079 36.5154 6.68777 37.0624C7.23475 37.6094 7.97661 37.9167 8.75016 37.9167H14.5835V58.3333C14.5835 59.1069 14.8908 59.8488 15.4378 60.3957C15.9847 60.9427 16.7266 61.25 17.5002 61.25H26.2502C27.0237 61.25 27.7656 60.9427 28.3126 60.3957C28.8595 59.8488 29.1668 59.1069 29.1668 58.3333V46.6667H40.8335V58.3333C40.8335 59.1069 41.1408 59.8488 41.6878 60.3957C42.2347 60.9427 42.9766 61.25 43.7502 61.25H52.5002C53.2737 61.25 54.0156 60.9427 54.5626 60.3957C55.1095 59.8488 55.4168 59.1069 55.4168 58.3333V37.9167H61.2502C62.0237 37.9167 62.7656 37.6094 63.3126 37.0624C63.8595 36.5154 64.1668 35.7735 64.1668 35C64.1628 34.5663 64.0601 34.1393 63.8665 33.7512C63.673 33.3631 63.3937 33.0242 63.0497 32.76C53.0368 24.325 35.0002 8.75 35.0002 8.75Z" fill="#4B4C50"/>
</svg>
